<?xml version="1.0" encoding="utf-8"?><svg xmlns="http://www.w3.org/2000/svg" xmlns:xlink="http://www.w3.org/1999/xlink"><symbol viewBox="0 0 8.7 5.1" id="arr-up" xmlns="http://www.w3.org/2000/svg"><path d="M8.4 4.7l-4-4-4 4"/></symbol><symbol viewBox="0 0 19.9 12.6" id="be" xmlns="http://www.w3.org/2000/svg"><path d="M8 5.6s1.9-.1 1.9-2.3C9.9 1.1 8.4 0 6.4 0H0v12.4h6.4s3.9.1 3.9-3.7c0-.1.2-3.1-2.3-3.1zM2.8 2.1h3.6s.9 0 .9 1.3-.5 1.5-1.1 1.5H2.8V2.1zm3.4 8H2.8V6.8h3.6s1.3 0 1.3 1.7c.1 1.4-1 1.6-1.5 1.6zm0 0M15.6 3.1c-4.7 0-4.7 4.7-4.7 4.7s-.3 4.7 4.7 4.7c0 0 4.2.3 4.2-3.3h-2.2s.1 1.3-2 1.3c0 0-2.2.1-2.2-2.1h6.4c.1 0 .8-5.3-4.2-5.3zm1.9 3.7h-4s.3-1.9 2.2-1.9c1.8 0 1.8 1.9 1.8 1.9zm0 0M12.9.7H18v1.5h-5.1z"/></symbol><symbol viewBox="0 0 31 18" id="btn-mob" xmlns="http://www.w3.org/2000/svg"><path d="M0 1h31M0 9h20M0 17h20"/></symbol><symbol viewBox="0 0 19 19" id="call" xmlns="http://www.w3.org/2000/svg"><path d="M14.4 12.6c-.6-.6-1.4-.6-2 0-.5.4-.9.9-1.4 1.4-.1.1-.2.2-.4.1-.3-.2-.6-.3-.9-.5-1.4-.9-2.5-2-3.5-3.2-.5-.6-.9-1.3-1.3-2 0-.2 0-.3.1-.4.5-.5.9-1 1.4-1.4.6-.7.6-1.4 0-2.1L5.3 3.4 4.2 2.3c-.6-.6-1.4-.6-2 0-.5.4-1 .9-1.5 1.4-.4.4-.6.9-.7 1.5-.1 1 .2 1.9.5 2.8.7 1.9 1.8 3.5 3 5.1 1.7 2.1 3.8 3.7 6.2 4.9 1.1.5 2.2.9 3.4 1 .8 0 1.6-.2 2.2-.8.4-.5.9-.9 1.3-1.3.6-.6.6-1.4 0-2-.7-.8-1.4-1.6-2.2-2.3zm0 0M13.7 9.4l1.5-.2c-.2-1.3-.9-2.6-1.8-3.5-1-1-2.3-1.7-3.7-1.9l-.3 1.5c1.1.2 2.1.6 2.9 1.4.7.7 1.2 1.7 1.4 2.7zm0 0M15.9 3.1C14.3 1.4 12.1.3 9.8 0l-.2 1.5c2 .3 3.9 1.2 5.3 2.7 1.4 1.4 2.3 3.1 2.6 5l1.5-.3c-.4-2.2-1.5-4.2-3.1-5.8zm0 0"/></symbol><symbol viewBox="0 0 18.4 18.4" id="close" xmlns="http://www.w3.org/2000/svg"><path d="M.7.7l17 17M17.7.7l-17 17"/></symbol><symbol viewBox="0 0 14.4 14.4" id="fail" xmlns="http://www.w3.org/2000/svg"><path d="M.7.7l13 13m0-13l-13 13"/></symbol><symbol viewBox="0 0 8.1 17.5" id="fb" xmlns="http://www.w3.org/2000/svg"><path d="M7.8 8.8H5.4v8.8H1.7V8.8H0V5.7h1.7v-2c0-1.5.7-3.7 3.7-3.7h2.7v3h-2c-.3 0-.7.2-.7.8v1.8h2.7l-.3 3.2zm0 0"/></symbol><symbol viewBox="0 0 17.5 17.5" id="inst" xmlns="http://www.w3.org/2000/svg"><circle cx="13.3" cy="4.3" r="1.1"/><path d="M8.8 4.2c-2.5 0-4.5 2-4.5 4.5s2 4.5 4.5 4.5 4.5-2 4.5-4.5c0-2.4-2-4.5-4.5-4.5zm0 7.3C7.2 11.5 6 10.3 6 8.8S7.2 6 8.8 6c1.5 0 2.8 1.2 2.8 2.8s-1.3 2.7-2.8 2.7z"/><path d="M12.3 0H5.2C2.3 0 0 2.3 0 5.2v7.1c0 2.9 2.3 5.2 5.2 5.2h7.1c2.9 0 5.2-2.3 5.2-5.2V5.2c0-2.9-2.3-5.2-5.2-5.2zm3.5 12.3c0 1.9-1.5 3.5-3.5 3.5H5.2c-1.9 0-3.5-1.5-3.5-3.5V5.2c0-1.9 1.5-3.5 3.5-3.5h7.1c1.9 0 3.5 1.5 3.5 3.5v7.1z"/></symbol><symbol viewBox="0 0 95.7 18.4" id="logo-part-1" xmlns="http://www.w3.org/2000/svg"><path d="M0 2.9v-.4c0-.6.3-.9.9-.9s.9.3.9.9v.4c0 .6-.3.9-.9.9S0 3.5 0 2.9zm0 3.5c0-.6.3-.9.9-.9s.9.3.9.9v11c0 .6-.3.9-.9.9s-.9-.2-.9-.8V6.4zM13.5 0c.6 0 .9.3.9.9s-.3.9-.9.9H9.8c-.8 0-1.4.3-2 .8S7 3.8 7 4.6v9.2c0 .8.3 1.4.8 1.9s1.2.8 1.9.8h3.7c.6 0 .9.3.9.9 0 .6-.3.9-.9.9H9.8c-1.3 0-2.4-.4-3.3-1.3-.9-.9-1.3-2-1.3-3.3V4.6c0-1.3.4-2.4 1.3-3.3C7.4.4 8.5 0 9.8 0h3.7zM16.7 8.4c0-1.6 1.3-2.8 2.8-2.8h3.6c.6 0 .9.3.9.9 0 0 0 .9-.9.9h-3.4c-.7 0-1.2.5-1.2 1.2v8.9c0 .5-.4.9-.9.9-.6 0-.9-.3-.9-.9V8.4zM27.3 12.9v1.8c0 .5.2.9.5 1.3.4.4.8.5 1.3.5h4.6c.6 0 .9.3.9.9 0 .6-.3.9-.9.9h-4.6c-1 0-1.9-.4-2.6-1.1-.7-.7-1.1-1.6-1.1-2.6V10c0-1.3.4-2.4 1.3-3.3.9-.9 2-1.3 3.3-1.3 1.3 0 2.4.4 3.3 1.3.9.9 1.3 2 1.3 3.3v2.8h-7.3zM30 7.4c-.8 0-1.4.3-1.9.8s-.8 1.2-.8 1.9v.9h5.5v-.9c0-.8-.3-1.4-.8-1.9-.6-.6-1.2-.8-2-.8zM40.1 18.4c-1 0-1.9-.4-2.6-1.1-.7-.7-1.1-1.6-1.1-2.6 0-.7.2-1.3.5-1.9.7-1.2 1.8-1.8 3.2-1.8h3.7V9.2c0-.5-.2-1-.5-1.3-.4-.4-.8-.5-1.3-.5h-3.7c-.6 0-.9-.3-.9-.9s.3-.9.9-.9H42c1 0 1.9.4 2.6 1.1.7.7 1.1 1.6 1.1 2.6v8.3c0 .6-.3.9-.9.9h-4.7zm3.7-5.5h-3.7c-.5 0-.9.2-1.3.5-.4.4-.5.8-.5 1.3s.2.9.5 1.3c.4.4.8.5 1.3.5h3.7v-3.6zM50.9 7.4h-2.5c-.6 0-.9-.3-.9-.9s.3-.9.9-.9h2.5V.9c0-.6.3-.9.9-.9s.9.3.9.9v4.6h2.8c.6 0 .9.3.9.9s-.3.9-.9.9h-2.8v10.1c0 .6-.3.9-.9.9s-.9-.3-.9-.9v-10zM58.7 2.9v-.4c0-.6.3-.9.9-.9s.9.3.9.9v.4c0 .6-.3.9-.9.9s-.9-.3-.9-.9zm0 3.5c0-.6.3-.9.9-.9s.9.3.9.9v11c0 .6-.3.9-.9.9s-.9-.3-.9-.9v-11zM63.4 13.8v-3.7c0-1.3.4-2.4 1.3-3.3.9-.9 2-1.3 3.3-1.3 1.3 0 2.4.4 3.3 1.3.9.9 1.3 2 1.3 3.3v3.7c0 1.3-.4 2.4-1.3 3.3-.9.9-2 1.3-3.3 1.3-1.3 0-2.4-.4-3.3-1.3-.8-1-1.3-2-1.3-3.3zm7.4 0v-3.7c0-.8-.3-1.4-.8-1.9s-1.2-.8-2-.8-1.4.3-1.9.8-.8 1.2-.8 1.9v3.7c0 .8.3 1.4.8 2 .5.5 1.2.8 2 .8s1.4-.3 1.9-.8.8-1.3.8-2zM75 17.5v-11c0-.6.3-.9.9-.9h4.6c1 0 1.9.4 2.6 1.1.7.7 1.1 1.6 1.1 2.6v8.3c0 .6-.3.9-.9.9-.6 0-.9-.3-.9-.9V9.2c0-.5-.2-1-.5-1.3-.4-.4-.8-.5-1.3-.5h-3.7v10.1c0 .6-.3.9-.9.9-.7 0-1-.3-1-.9zM93.9 15.2c0-.6-.3-1-.8-1.3l-4.7-2.3c-1.2-.6-1.9-1.6-1.9-2.9 0-1.1.4-1.9 1.3-2.5.8-.5 1.7-.8 2.8-.8 1.4 0 2.6.3 3.7 1 .3.2.5.5.5.8 0 .3-.1.5-.3.6-.2.2-.4.3-.6.3-.2 0-.3 0-.4-.1-.9-.5-1.8-.8-2.8-.8-1.5 0-2.3.5-2.3 1.4 0 .6.3 1 .8 1.2l4.8 2.3c1.2.6 1.8 1.6 1.8 2.9 0 1.1-.4 1.9-1.3 2.5-.8.5-1.7.7-2.9.7-1.8 0-3.2-.3-4.4-1-.3-.2-.5-.5-.5-.8 0-.3.1-.5.3-.6.2-.2.4-.3.6-.3.1 0 .2 0 .3.1.3.1.7.3 1.3.5.8.2 1.6.3 2.4.3 1.5.1 2.3-.3 2.3-1.2z"/></symbol><symbol viewBox="0 0 64.1 24" id="logo-part-2" xmlns="http://www.w3.org/2000/svg"><path d="M12 18.3c-.3 0-.5-.1-.6-.4L10 13.5H2.6l-1.5 4.4c-.1.3-.3.4-.6.4-.4 0-.6-.2-.6-.6v-.2L5.6.5c.2-.4.5-.5.7-.5.2 0 .4.1.6.5l5.7 17.1v.2c0 .3-.2.5-.6.5zm-9-5.9h6.6l-3.3-10-3.3 10zM15.6 24c-.4 0-.6-.2-.6-.6 0-.4.2-.6.6-.6h3.8c.6 0 1.2-.2 1.6-.7.4-.4.7-1 .7-1.6v-2.3h-4.2c-1.3 0-2.3-.6-3-1.7-.3-.5-.5-1.1-.5-1.7V9.1c0-1 .3-1.8 1-2.4.7-.7 1.5-1 2.4-1h4.8c.4 0 .6.2.6.6v14.3c0 1-.3 1.8-1 2.4-.7.7-1.5 1-2.4 1h-3.8zm1.9-17.1c-.6 0-1.2.2-1.6.7-.4.4-.7 1-.7 1.6v5.7c0 .6.2 1.2.7 1.6.4.4 1 .7 1.6.7h4.2V6.9h-4.2zM28.3 18.3c-1 0-1.8-.3-2.4-1-.7-.7-1-1.5-1-2.4v-4.8c0-1.2.4-2.2 1.3-3.1.8-.9 1.8-1.3 3-1.3s2.3.4 3.1 1.3c.9.9 1.3 1.9 1.3 3.1v2.5H26v2.3c0 .6.2 1.2.7 1.6.4.4 1 .7 1.6.7H33c.4 0 .6.2.6.6s-.2.6-.6.6h-4.7zm.9-11.4c-.9 0-1.7.3-2.3.9-.6.6-.9 1.4-.9 2.3v1.3h6.5v-1.3c0-.9-.3-1.7-.9-2.3-.7-.6-1.5-.9-2.4-.9zM43.8 18.3c-.4 0-.6-.2-.6-.6V9.1c0-.6-.2-1.2-.7-1.6-.4-.4-1-.7-1.6-.7h-4.2v10.8c0 .4-.2.6-.6.6s-.6-.2-.6-.6V6.3c0-.4.2-.6.6-.6H41c1 0 1.8.3 2.4 1 .7.7 1 1.5 1 2.4v8.6c0 .4-.1.6-.6.6zM49.9 18.3c-1 0-1.8-.3-2.4-1-.7-.7-1-1.5-1-2.4V9.1c0-1 .3-1.8 1-2.4.7-.7 1.5-1 2.4-1h2.9c.4 0 .6.2.6.6 0 .4-.2.6-.6.6h-2.9c-.6 0-1.2.2-1.6.7-.4.4-.7 1-.7 1.6v5.7c0 .6.2 1.2.7 1.6.4.4 1 .7 1.6.7h2.9c.4 0 .6.2.6.6s-.2.6-.6.6h-2.9zM55.9 24c-.4 0-.6-.2-.6-.6 0-.3.1-.5.5-.6h1.6l1.7-5.1-3.7-11.2v-.2c0-.4.2-.6.6-.6.3 0 .5.1.6.4l3.3 9.8L63 6.1c.1-.3.2-.4.6-.4.4 0 .6.2.6.6v.2l-5.7 17.1c-.1.3-.3.4-.6.4h-2z"/></symbol><symbol viewBox="0 0 9.1 15.4" id="next" xmlns="http://www.w3.org/2000/svg"><path d="M.7 14.7l7-7-7-7"/></symbol><symbol viewBox="0 0 9.1 15.4" id="prev" xmlns="http://www.w3.org/2000/svg"><path d="M8.4 14.7l-7-7 7-7"/></symbol><symbol viewBox="0 0 16.5 13.2" id="sucsess" xmlns="http://www.w3.org/2000/svg"><path d="M15.8.7l-9.9 11L.8 5.5"/></symbol><symbol viewBox="0 0 19.9 16.2" id="tw" xmlns="http://www.w3.org/2000/svg"><path d="M19.9 1.9c-.7.3-1.5.5-2.3.6.8-.5 1.5-1.3 1.8-2.3-.8.5-1.7.8-2.6 1C16 .5 15 0 13.8 0c-2.3 0-4.1 1.8-4.1 4.1 0 .3 0 .6.1.9C6.4 4.8 3.4 3.2 1.4.7 1 1.4.8 2.1.8 2.8c0 1.4.7 2.7 1.8 3.4-.6 0-1.2-.2-1.8-.5v.1c0 2 1.4 3.6 3.3 4-.4 0-.7.1-1.1.1-.3 0-.5 0-.8-.1.5 1.6 2 2.8 3.8 2.8-1.4 1.1-3.2 1.7-5.1 1.7-.3 0-.7 0-1-.1 1.8 1.2 4 1.8 6.3 1.8 7.5 0 11.6-6.2 11.6-11.6v-.5c.9-.4 1.6-1.2 2.1-2zm0 0"/></symbol><symbol viewBox="0 0 21 19.6" id="write" xmlns="http://www.w3.org/2000/svg"><path d="M21 7.4v-.1c0-.1-.1-.2-.2-.3l-3-2.1V2.7c0-.3-.2-.5-.5-.5h-3.5l-2.9-2c-.2-.1-.4-.1-.6 0l-3 2H3.8c-.3 0-.5.2-.5.5v2.2L.2 7c-.1.1-.2.2-.2.4v11.7c0 .1.1.3.2.4.1.1.2.2.4.2h19.9c.3 0 .5-.2.5-.5V7.4zM7.6 12.9l-6.5 5V8.4l6.5 4.5zm2.9-.9l8.4 6.5H2.2l8.3-6.5zm2.9.9l6.5-4.5V18l-6.5-5.1zm6.1-5.5l-1.7 1.2V6.2l1.7 1.2zm-9-6.2l1.4.9H9.1l1.4-.9zm6.2 2v6.1l-4.1 2.9-1.7-1.3c-.2-.1-.5-.1-.7 0l-1.7 1.3-4.2-2.8V3.2h12.4zM3.3 8.6L1.5 7.4l1.8-1.2v2.4z"/><path d="M6.9 6.4h7.3c.3 0 .5-.2.5-.5s-.2-.5-.5-.5H6.9c-.3 0-.5.2-.5.5s.2.5.5.5zM6.9 9.2h7.3c.3 0 .5-.2.5-.5s-.2-.5-.5-.5H6.9c-.3 0-.5.2-.5.5-.1.3.2.5.5.5z"/></symbol><symbol viewBox="0 0 24.7 15" id="write-footer" xmlns="http://www.w3.org/2000/svg"><path d="M24.7 1.3c0-.7-.6-1.3-1.3-1.3H1.3C.9 0 .6.2.4.4.1.6 0 1 0 1.3v12.4c0 .3.1.7.4.9.2.3.5.4.9.4h22.1c.7 0 1.3-.6 1.3-1.3V1.3zm-8.3 8l5.7 4.4H2.4l5.8-4.5c.3-.2.4-.6.2-.8-.2-.3-.6-.4-.9-.1l-6.2 4.8V1.9L12 9.3c.1.1.2.1.4.1.1 0 .3 0 .4-.1l10.7-7.4v11.2l-6.2-4.8c-.3-.2-.7-.2-.9.1-.3.2-.2.6 0 .9zm-13.7-8h19.4L12.3 8 2.7 1.3z"/></symbol><symbol viewBox="-13.5 12.5 33.6 33.6" id="zoom" xmlns="http://www.w3.org/2000/svg"><path d="M20.1 43.9l-9.4-9.4c1.9-2.3 3-5.3 3-8.5 0-7.5-6.1-13.6-13.6-13.6S-13.5 18.5-13.5 26-7.4 39.6.1 39.6c3.2 0 6.2-1.1 8.5-3L18 46l2.1-2.1zm-30.6-17.8c0-5.8 4.8-10.6 10.6-10.6s10.6 4.8 10.6 10.6S5.9 36.7.1 36.7s-10.6-4.8-10.6-10.6z"/><path d="M-.7 30.7v-4h-4V25h3.9v-3.9H1V25h3.9v1.7H1v4H-.7z"/></symbol></svg>